<?xml version="1.0" encoding="UTF-8" standalone="no"?><!-- Generator: Gravit.io --><svg xmlns="http://www.w3.org/2000/svg" xmlns:xlink="http://www.w3.org/1999/xlink" style="isolation:isolate" viewBox="0 0 679 77.8" width="679pt" height="77.8pt"><defs><clipPath id="_clipPath_PV1xh2mCk2wuLCsMXTteiaQNtn4xenGj"><rect width="679" height="77.8"/></clipPath></defs><g clip-path="url(#_clipPath_PV1xh2mCk2wuLCsMXTteiaQNtn4xenGj)"><path d=" M 618.9 71.99 L 606.03 71.99 L 606.03 68.66 L 630.42 39.59 L 606.03 10.52 L 606.03 7.19 L 618.9 7.19 L 638.34 30.23 L 657.6 7.19 L 670.56 7.19 L 670.56 10.52 L 646.08 39.59 L 670.56 68.57 L 670.56 71.99 L 657.6 71.99 L 638.25 49.04 L 618.9 71.99 L 618.9 71.99 Z  M 466.35 71.99 L 439.83 71.99 L 439.83 71.99 Q 436.41 71.99 433.95 69.53 L 433.95 69.53 L 433.95 69.53 Q 431.49 67.07 431.49 63.65 L 431.49 63.65 L 431.49 37.13 L 431.49 37.13 Q 431.49 33.71 433.95 31.25 L 433.95 31.25 L 433.95 31.25 Q 436.41 28.79 439.83 28.79 L 439.83 28.79 L 466.35 28.79 L 466.35 28.79 Q 469.77 28.79 472.23 31.25 L 472.23 31.25 L 472.23 31.25 Q 474.69 33.71 474.69 37.13 L 474.69 37.13 L 474.69 63.65 L 474.69 63.65 Q 474.69 67.07 472.23 69.53 L 472.23 69.53 L 472.23 69.53 Q 469.77 71.99 466.35 71.99 L 466.35 71.99 L 466.35 71.99 Z  M 441.51 64.01 L 441.51 64.01 L 464.61 64.01 L 464.61 64.01 Q 466.23 64.01 466.47 63.8 L 466.47 63.8 L 466.47 63.8 Q 466.71 63.59 466.71 61.91 L 466.71 61.91 L 466.71 38.87 L 466.71 38.87 Q 466.71 37.19 466.47 36.98 L 466.47 36.98 L 466.47 36.98 Q 466.23 36.77 464.61 36.77 L 464.61 36.77 L 441.51 36.77 L 441.51 36.77 Q 439.83 36.77 439.62 36.98 L 439.62 36.98 L 439.62 36.98 Q 439.41 37.19 439.41 38.87 L 439.41 38.87 L 439.41 61.91 L 439.41 61.91 Q 439.41 63.59 439.62 63.8 L 439.62 63.8 L 439.62 63.8 Q 439.83 64.01 441.51 64.01 Z  M 516.03 71.99 L 489.51 71.99 L 489.51 71.99 Q 486.09 71.99 483.63 69.53 L 483.63 69.53 L 483.63 69.53 Q 481.17 67.07 481.17 63.65 L 481.17 63.65 L 481.17 37.13 L 481.17 37.13 Q 481.17 33.71 483.63 31.25 L 483.63 31.25 L 483.63 31.25 Q 486.09 28.79 489.51 28.79 L 489.51 28.79 L 516.03 28.79 L 516.03 28.79 Q 519.45 28.79 521.91 31.25 L 521.91 31.25 L 521.91 31.25 Q 524.37 33.71 524.37 37.13 L 524.37 37.13 L 524.37 63.65 L 524.37 63.65 Q 524.37 67.07 521.91 69.53 L 521.91 69.53 L 521.91 69.53 Q 519.45 71.99 516.03 71.99 L 516.03 71.99 L 516.03 71.99 Z  M 491.19 64.01 L 491.19 64.01 L 514.29 64.01 L 514.29 64.01 Q 515.91 64.01 516.15 63.8 L 516.15 63.8 L 516.15 63.8 Q 516.39 63.59 516.39 61.91 L 516.39 61.91 L 516.39 38.87 L 516.39 38.87 Q 516.39 37.19 516.15 36.98 L 516.15 36.98 L 516.15 36.98 Q 515.91 36.77 514.29 36.77 L 514.29 36.77 L 491.19 36.77 L 491.19 36.77 Q 489.51 36.77 489.3 36.98 L 489.3 36.98 L 489.3 36.98 Q 489.09 37.19 489.09 38.87 L 489.09 38.87 L 489.09 61.91 L 489.09 61.91 Q 489.09 63.59 489.3 63.8 L 489.3 63.8 L 489.3 63.8 Q 489.51 64.01 491.19 64.01 Z  M 574.23 71.99 L 531.03 71.99 L 531.03 28.73 L 538.95 28.73 L 538.95 64.01 L 574.23 64.01 L 574.23 71.99 L 574.23 71.99 Z  M 400.17 71.99 L 388.2 71.99 L 388.2 19.16 L 361.74 19.16 L 361.74 7.19 L 426.54 7.19 L 426.54 19.16 L 400.17 19.16 L 400.17 71.99 L 400.17 71.99 Z  M 121.62 71.99 L 95.1 71.99 L 95.1 71.99 Q 91.68 71.99 89.22 69.53 L 89.22 69.53 L 89.22 69.53 Q 86.76 67.07 86.76 63.65 L 86.76 63.65 L 86.76 37.13 L 86.76 37.13 Q 86.76 33.71 89.22 31.25 L 89.22 31.25 L 89.22 31.25 Q 91.68 28.79 95.1 28.79 L 95.1 28.79 L 121.62 28.79 L 121.62 28.79 Q 125.04 28.79 127.5 31.25 L 127.5 31.25 L 127.5 31.25 Q 129.96 33.71 129.96 37.13 L 129.96 37.13 L 129.96 63.65 L 129.96 63.65 Q 129.96 67.07 127.5 69.53 L 127.5 69.53 L 127.5 69.53 Q 125.04 71.99 121.62 71.99 L 121.62 71.99 L 121.62 71.99 Z  M 96.78 64.01 L 96.78 64.01 L 119.88 64.01 L 119.88 64.01 Q 121.5 64.01 121.74 63.8 L 121.74 63.8 L 121.74 63.8 Q 121.98 63.59 121.98 61.91 L 121.98 61.91 L 121.98 38.87 L 121.98 38.87 Q 121.98 37.19 121.74 36.98 L 121.74 36.98 L 121.74 36.98 Q 121.5 36.77 119.88 36.77 L 119.88 36.77 L 96.78 36.77 L 96.78 36.77 Q 95.1 36.77 94.89 36.98 L 94.89 36.98 L 94.89 36.98 Q 94.68 37.19 94.68 38.87 L 94.68 38.87 L 94.68 61.91 L 94.68 61.91 Q 94.68 63.59 94.89 63.8 L 94.89 63.8 L 94.89 63.8 Q 95.1 64.01 96.78 64.01 Z  M 171.48 71.99 L 136.68 71.99 L 136.68 28.79 L 171.48 28.79 L 171.48 28.79 Q 174.96 28.79 177.42 31.25 L 177.42 31.25 L 177.42 31.25 Q 179.88 33.71 179.88 37.13 L 179.88 37.13 L 179.88 63.65 L 179.88 63.65 Q 179.88 67.07 177.42 69.53 L 177.42 69.53 L 177.42 69.53 Q 174.96 71.99 171.48 71.99 L 171.48 71.99 L 171.48 71.99 Z  M 146.7 64.01 L 146.7 64.01 L 169.8 64.01 L 169.8 64.01 Q 171.42 64.01 171.66 63.8 L 171.66 63.8 L 171.66 63.8 Q 171.9 63.59 171.9 61.91 L 171.9 61.91 L 171.9 38.87 L 171.9 38.87 Q 171.9 37.19 171.66 36.98 L 171.66 36.98 L 171.66 36.98 Q 171.42 36.77 169.8 36.77 L 169.8 36.77 L 146.7 36.77 L 146.7 36.77 Q 145.02 36.77 144.81 36.98 L 144.81 36.98 L 144.81 36.98 Q 144.6 37.19 144.6 38.87 L 144.6 38.87 L 144.6 61.91 L 144.6 61.91 Q 144.6 63.59 144.81 63.8 L 144.81 63.8 L 144.81 63.8 Q 145.02 64.01 146.7 64.01 Z  M 221.58 71.99 L 186.78 71.99 L 186.78 28.79 L 219.9 28.79 L 219.9 28.79 Q 223.32 28.79 225.78 31.25 L 225.78 31.25 L 225.78 31.25 Q 228.24 33.71 228.24 37.13 L 228.24 37.13 L 228.24 45.59 L 228.24 45.59 Q 228.24 46.37 228.12 47.09 L 228.12 47.09 L 228.12 47.09 Q 228 47.81 227.7 48.47 L 227.7 48.47 L 227.7 48.47 Q 228.72 49.85 229.35 51.35 L 229.35 51.35 L 229.35 51.35 Q 229.98 52.85 229.98 54.35 L 229.98 54.35 L 229.98 63.65 L 229.98 63.65 Q 229.98 67.07 227.52 69.53 L 227.52 69.53 L 227.52 69.53 Q 225.06 71.99 221.58 71.99 L 221.58 71.99 L 221.58 71.99 Z  M 196.8 64.01 L 196.8 64.01 L 219.9 64.01 L 219.9 64.01 Q 221.52 64.01 221.76 63.8 L 221.76 63.8 L 221.76 63.8 Q 222 63.59 222 61.91 L 222 61.91 L 222 56.09 L 222 56.09 Q 222 54.41 221.76 54.2 L 221.76 54.2 L 221.76 54.2 Q 221.52 53.99 219.9 53.99 L 219.9 53.99 L 196.8 53.99 L 196.8 53.99 Q 195.12 53.99 194.91 54.2 L 194.91 54.2 L 194.91 54.2 Q 194.7 54.41 194.7 56.09 L 194.7 56.09 L 194.7 61.91 L 194.7 61.91 Q 194.7 63.59 194.91 63.8 L 194.91 63.8 L 194.91 63.8 Q 195.12 64.01 196.8 64.01 Z  M 196.8 46.01 L 196.8 46.01 L 218.16 46.01 L 218.16 46.01 Q 219.84 46.01 220.02 45.8 L 220.02 45.8 L 220.02 45.8 Q 220.2 45.59 220.2 43.91 L 220.2 43.91 L 220.2 38.87 L 220.2 38.87 Q 220.2 37.19 220.02 36.98 L 220.02 36.98 L 220.02 36.98 Q 219.84 36.77 218.16 36.77 L 218.16 36.77 L 196.8 36.77 L 196.8 36.77 Q 195.12 36.77 194.91 36.98 L 194.91 36.98 L 194.91 36.98 Q 194.7 37.19 194.7 38.87 L 194.7 38.87 L 194.7 43.91 L 194.7 43.91 Q 194.7 45.59 194.91 45.8 L 194.91 45.8 L 194.91 45.8 Q 195.12 46.01 196.8 46.01 Z  M 271.26 71.99 L 244.74 71.99 L 244.74 71.99 Q 241.32 71.99 238.86 69.53 L 238.86 69.53 L 238.86 69.53 Q 236.4 67.07 236.4 63.65 L 236.4 63.65 L 236.4 28.79 L 244.32 28.79 L 244.32 61.91 L 244.32 61.91 Q 244.32 63.59 244.53 63.8 L 244.53 63.8 L 244.53 63.8 Q 244.74 64.01 246.42 64.01 L 246.42 64.01 L 269.52 64.01 L 269.52 64.01 Q 271.14 64.01 271.38 63.8 L 271.38 63.8 L 271.38 63.8 Q 271.62 63.59 271.62 61.91 L 271.62 61.91 L 271.62 28.79 L 279.6 28.79 L 279.6 63.65 L 279.6 63.65 Q 279.6 67.07 277.14 69.53 L 277.14 69.53 L 277.14 69.53 Q 274.68 71.99 271.26 71.99 L 271.26 71.99 L 271.26 71.99 Z  M 320.88 71.99 L 294.36 71.99 L 294.36 71.99 Q 290.94 71.99 288.48 69.53 L 288.48 69.53 L 288.48 69.53 Q 286.02 67.07 286.02 63.65 L 286.02 63.65 L 286.02 60.35 L 293.94 60.35 L 293.94 61.91 L 293.94 61.91 Q 293.94 63.59 294.15 63.8 L 294.15 63.8 L 294.15 63.8 Q 294.36 64.01 296.04 64.01 L 296.04 64.01 L 319.14 64.01 L 319.14 64.01 Q 320.82 64.01 321.03 63.8 L 321.03 63.8 L 321.03 63.8 Q 321.24 63.59 321.24 61.91 L 321.24 61.91 L 321.24 56.45 L 321.24 56.45 Q 321.24 54.77 321.03 54.59 L 321.03 54.59 L 321.03 54.59 Q 320.82 54.41 319.14 54.41 L 319.14 54.41 L 294.36 54.41 L 294.36 54.41 Q 290.94 54.41 288.48 51.92 L 288.48 51.92 L 288.48 51.92 Q 286.02 49.43 286.02 46.01 L 286.02 46.01 L 286.02 37.13 L 286.02 37.13 Q 286.02 33.71 288.48 31.25 L 288.48 31.25 L 288.48 31.25 Q 290.94 28.79 294.36 28.79 L 294.36 28.79 L 320.88 28.79 L 320.88 28.79 Q 324.3 28.79 326.76 31.25 L 326.76 31.25 L 326.76 31.25 Q 329.22 33.71 329.22 37.13 L 329.22 37.13 L 329.22 40.43 L 321.24 40.43 L 321.24 38.87 L 321.24 38.87 Q 321.24 37.19 321.03 36.98 L 321.03 36.98 L 321.03 36.98 Q 320.82 36.77 319.14 36.77 L 319.14 36.77 L 296.04 36.77 L 296.04 36.77 Q 294.36 36.77 294.15 36.98 L 294.15 36.98 L 294.15 36.98 Q 293.94 37.19 293.94 38.87 L 293.94 38.87 L 293.94 44.33 L 293.94 44.33 Q 293.94 46.01 294.15 46.19 L 294.15 46.19 L 294.15 46.19 Q 294.36 46.37 296.04 46.37 L 296.04 46.37 L 320.88 46.37 L 320.88 46.37 Q 324.3 46.37 326.76 48.86 L 326.76 48.86 L 326.76 48.86 Q 329.22 51.35 329.22 54.77 L 329.22 54.77 L 329.22 63.65 L 329.22 63.65 Q 329.22 67.07 326.76 69.53 L 326.76 69.53 L 326.76 69.53 Q 324.3 71.99 320.88 71.99 L 320.88 71.99 L 320.88 71.99 Z  M 16.92 71.99 L 5.04 71.99 L 5.04 7.19 L 18.09 7.19 L 41.58 35.18 L 64.98 7.19 L 78.12 7.19 L 78.12 71.99 L 66.15 71.99 L 66.15 24.47 L 41.58 53.72 L 16.92 24.56 L 16.92 71.99 L 16.92 71.99 Z " fill="rgb(0,0,0)"/></g></svg>